<svg xmlns="http://www.w3.org/2000/svg" viewBox="0 0 122.5 122.5">
  <path d="M8.7 61.3c0 20.9 12.2 39 29.8 47.6L13.2 42.1A52.3 52.3 0 0 0 8.7 61.3zm88-2.7c0-6.5-2.3-11-4.3-14.5-2.7-4.3-5.2-8-5.2-12.3 0-4.8 3.7-9.3 8.8-9.3h.7a52.4 52.4 0 0 0-79.4 3.6l3.4.1c5.6 0 14.2-.7 14.2-.7 2.9-.2 3.2 4.1.3 4.4 0 0-2.9.3-6.1.5l19.4 57.7 11.7-35L53 42.1c-2.9-.2-5.6-.5-5.6-.5-2.9-.2-2.5-4.6.3-4.4 0 0 8.8.7 14 .7 5.6 0 14.2-.7 14.2-.7 2.9-.2 3.2 4.1.3 4.4 0 0-2.9.3-6.1.5L89.3 99l5.3-17.8c2.3-7.4 4.1-12.7 4.1-17.3zM61.5 66l-16.1 46.9a52.6 52.6 0 0 0 32.3-1 4.7 4.7 0 0 1-.4-.7L61.5 66zm45.8-30.5c.1 1 .2 2.2.2 3.5 0 6.9-1.3 14.7-5.2 24.4L84.6 107a52.5 52.5 0 0 0 22.7-46.6zM61.3 0a61.3 61.3 0 1 0 0 122.5A61.3 61.3 0 0 0 61.3 0zm0 119.7a58.5 58.5 0 1 1 0-117 58.5 58.5 0 0 1 0 117z" fill="#3858e9"/>
</svg>
